<?xml version="1.0" encoding="UTF-8"?>
<svg width="1312px" height="612px" viewBox="0 0 1312 612" version="1.1" xmlns="http://www.w3.org/2000/svg" xmlns:xlink="http://www.w3.org/1999/xlink">
    <!-- Generator: Sketch 52.5 (67469) - http://www.bohemiancoding.com/sketch -->
    <title>brain</title>
    <desc>Created with Sketch.</desc>
    <g id="Page-1" stroke="none" stroke-width="1" fill="none" fill-rule="evenodd">
        <g id="brain">
            <g id="Group">
                <ellipse id="Oval" fill="#22A6B1" cx="656" cy="306" rx="656" ry="306"></ellipse>
                <path d="M408.491228,281.491228 C406.013158,281.491228 404,279.47807 404,277 C404,135.842105 518.842105,21 660,21 C662.47807,21 664.491228,23.0131582 664.491228,25.4912281 C664.491228,27.969298 662.47807,29.9824561 660,29.9824561 C523.789474,29.9824561 412.982456,140.798245 412.982456,277 C412.982456,279.47807 410.969298,281.491228 408.491228,281.491228 Z" id="Path" fill="#00FFCB"></path>
                <path d="M686.947368,29.9824561 L677.964912,29.9824561 C675.486842,29.9824561 673.473684,27.969298 673.473684,25.4912281 C673.473684,23.0131582 675.486842,21 677.964912,21 L686.947368,21 C689.425438,21 691.438596,23.0131582 691.438596,25.4912281 C691.438596,27.969298 689.425438,29.9824561 686.947368,29.9824561 Z" id="Path" fill="#00FFCB"></path>
                <path d="M660,533 C657.52193,533 655.508772,530.986842 655.508772,528.508772 C655.508772,526.030702 657.52193,524.017544 660,524.017544 C796.210526,524.017544 907.017544,413.201755 907.017544,277 C907.017544,274.52193 909.030702,272.508772 911.508772,272.508772 C913.986842,272.508772 916,274.52193 916,277 C916,418.157895 801.157895,533 660,533 Z" id="Path" fill="#00FFCB"></path>
                <path d="M642.035088,533 L633.052632,533 C630.574562,533 628.561404,530.986842 628.561404,528.508772 C628.561404,526.030702 630.574562,524.017544 633.052632,524.017544 L642.035088,524.017544 C644.513158,524.017544 646.526316,526.030702 646.526316,528.508772 C646.526316,530.986842 644.513158,533 642.035088,533 Z" id="Path" fill="#00FFCB"></path>
                <path d="M848.631579,47.9473684 L812.701754,47.9473684 C810.223684,47.9473684 808.210526,45.9342102 808.210526,43.4561404 C808.210526,40.9780705 810.223684,38.9649123 812.701754,38.9649123 L848.631579,38.9649123 C851.109649,38.9649123 853.122807,40.9780705 853.122807,43.4561404 C853.122807,45.9342102 851.109649,47.9473684 848.631579,47.9473684 Z" id="Path" fill="#00FFCB"></path>
                <path d="M830.666667,65.9122807 C828.188597,65.9122807 826.175439,63.8991225 826.175439,61.4210526 L826.175439,25.4912281 C826.175439,23.0131582 828.188597,21 830.666667,21 C833.144737,21 835.157895,23.0131582 835.157895,25.4912281 L835.157895,61.4210526 C835.157895,63.8991225 833.144737,65.9122807 830.666667,65.9122807 Z" id="Path" fill="#00FFCB"></path>
                <path d="M911.508772,106.333333 L875.578947,106.333333 C873.100877,106.333333 871.087719,104.320175 871.087719,101.842105 C871.087719,99.3640354 873.100877,97.3508772 875.578947,97.3508772 L911.508772,97.3508772 C913.986842,97.3508772 916,99.3640354 916,101.842105 C916,104.320175 913.986842,106.333333 911.508772,106.333333 Z" id="Path" fill="#00FFCB"></path>
                <path d="M893.54386,124.298246 C891.06579,124.298246 889.052632,122.285087 889.052632,119.807018 L889.052632,83.877193 C889.052632,81.3991231 891.06579,79.3859649 893.54386,79.3859649 C896.02193,79.3859649 898.035088,81.3991231 898.035088,83.877193 L898.035088,119.807018 C898.035088,122.285087 896.02193,124.298246 893.54386,124.298246 Z" id="Path" fill="#00FFCB"></path>
            </g>
            <path d="M604.451755,119.833334 C574.95614,120.714913 552.210526,146.447368 552.210526,175.964912 L552.210526,205.140351 C532.368421,205.140351 516.280702,221.22807 516.280702,241.070175 C516.280702,252.460526 521.679825,262.482456 529.951754,269.070175 C516.254385,278.842105 507.298246,294.820176 507.298246,312.929825 C507.298246,339.618421 526.736842,361.649123 552.210526,365.942983 L552.210526,380.298246 C552.210526,410.06579 576.337719,434.192982 606.105263,434.192982 C635.872807,434.192982 660,410.06579 660,380.298246 L660,173.701754 C660,143.385965 634.973685,118.916666 604.451755,119.833334 Z" id="Path" fill="#00CACC"></path>
            <path d="M606.105263,438.684211 C573.912281,438.684211 547.719298,412.491228 547.719298,380.298246 L547.719298,369.627193 C521.482456,363.447369 502.807018,340.192982 502.807018,312.929825 C502.807018,295.969298 510.27193,279.855263 523.017544,268.81579 C515.824561,261.324561 511.789474,251.473684 511.789474,241.070175 C511.789474,220.302631 527.535088,203.135965 547.719298,200.890351 L547.719298,175.964912 C547.719298,143.464912 573.114036,116.267544 604.315789,115.342106 C620.342106,114.982456 635.342105,120.714913 646.767544,131.807018 C658.192982,142.890351 664.491228,157.785088 664.491228,173.701754 L664.491228,380.298246 C664.491228,412.491228 638.298246,438.684211 606.105263,438.684211 Z M606.114035,124.298246 C605.600877,124.298246 605.100877,124.307017 604.58772,124.324562 C578.188597,125.105263 556.701754,148.271929 556.701754,175.964912 L556.701754,205.140351 C556.701754,207.618421 554.688596,209.631579 552.210526,209.631579 C534.872807,209.631579 520.77193,223.732456 520.77193,241.070175 C520.77193,250.574562 525.135965,259.499999 532.745613,265.557018 C533.850878,266.447368 534.469299,267.785088 534.434211,269.18421 C534.399123,270.596491 533.697369,271.907895 532.557018,272.732456 C519.548245,282.013158 511.789474,297.030702 511.789474,312.929825 C511.789474,337.074561 529.096491,357.499999 552.95614,361.517544 C555.122807,361.885964 556.701754,363.754386 556.701754,365.942983 L556.701754,380.298246 C556.701754,407.535087 578.859649,429.701754 606.105263,429.701754 C633.350877,429.701754 655.508772,407.535087 655.508772,380.298246 L655.508772,173.701754 C655.508772,160.22807 650.18421,147.644737 640.508772,138.25 C631.201754,129.219298 619.039473,124.298246 606.114035,124.298246 Z" id="Shape" fill="#FCFBFB" fill-rule="nonzero"></path>
            <path d="M561.192982,371.315789 C529,371.315789 502.807018,345.122807 502.807018,312.929825 C502.807018,310.451755 504.820176,308.438596 507.298246,308.438596 C509.776316,308.438596 511.789474,310.451755 511.789474,312.929825 C511.789474,340.166666 533.947368,362.333333 561.192982,362.333333 C588.438596,362.333333 610.596491,340.166666 610.596491,312.929825 L610.596491,294.964912 C610.596491,292.486842 612.609649,290.473684 615.087719,290.473684 C617.565789,290.473684 619.578947,292.486842 619.578947,294.964912 L619.578947,312.929825 C619.578947,345.122807 593.385965,371.315789 561.192982,371.315789 Z" id="Path" fill="#FCFBFB"></path>
            <path d="M568.513158,303.973685 C566.035088,303.973685 564.02193,301.960527 564.02193,299.482457 L564.02193,277.684211 C564.02193,261.767544 571.754386,246.72807 584.710526,237.469299 L587.942983,235.166667 C592.649123,231.811403 595.460526,226.337719 595.460526,220.54386 L595.460526,187.192982 C595.460526,184.714913 597.473684,182.701754 599.951754,182.701754 C602.429824,182.701754 604.442982,184.714913 604.442982,187.192982 L604.442982,220.54386 C604.442982,229.232456 600.223684,237.434211 593.16228,242.482456 L589.929825,244.780702 C579.337719,252.350877 573.004386,264.649123 573.004386,277.675438 L573.004386,299.473684 C573.004386,301.960527 571,303.973685 568.513158,303.973685 Z" id="Path" fill="#FCFBFB"></path>
            <path d="M715.548245,119.833334 C745.04386,120.714913 767.789474,146.447368 767.789474,175.964912 L767.789474,205.140351 C787.631579,205.140351 803.719298,221.22807 803.719298,241.070175 C803.719298,252.460526 798.320175,262.482456 790.048246,269.070175 C803.745615,278.842105 812.701754,294.820176 812.701754,312.929825 C812.701754,339.618421 793.263158,361.649123 767.789474,365.942983 L767.789474,380.298246 C767.789474,410.06579 743.662281,434.192982 713.894737,434.192982 C684.127193,434.192982 660,410.06579 660,380.298246 L660,173.701754 C660,143.385965 685.026315,118.916666 715.548245,119.833334 Z" id="Path" fill="#00CACC"></path>
            <path d="M713.894737,438.684211 C681.701754,438.684211 655.508772,412.491228 655.508772,380.298246 L655.508772,173.701754 C655.508772,157.785088 661.807018,142.890351 673.232456,131.807018 C684.657895,120.714913 699.72807,114.991229 715.684211,115.342106 C746.885964,116.276316 772.280702,143.464912 772.280702,175.964912 L772.280702,200.890351 C792.464912,203.135965 808.210526,220.29386 808.210526,241.070175 C808.210526,251.473684 804.175439,261.324561 796.982456,268.81579 C809.72807,279.855263 817.192982,295.969298 817.192982,312.929825 C817.192982,340.184211 798.517544,363.447369 772.280702,369.627193 L772.280702,380.298246 C772.280702,412.491228 746.087719,438.684211 713.894737,438.684211 Z M713.885965,124.298246 C700.960527,124.298246 688.798246,129.219298 679.491228,138.25 C669.81579,147.644737 664.491228,160.22807 664.491228,173.701754 L664.491228,380.298246 C664.491228,407.535087 686.649123,429.701754 713.894737,429.701754 C741.140351,429.701754 763.298246,407.535087 763.298246,380.298246 L763.298246,365.942983 C763.298246,363.754386 764.877193,361.885964 767.04386,361.517544 C790.903509,357.499999 808.210526,337.074561 808.210526,312.929825 C808.210526,297.030702 800.451755,282.013158 787.442982,272.723684 C786.302631,271.899123 785.600877,270.596491 785.565789,269.175439 C785.530701,267.776316 786.157895,266.429825 787.254387,265.548245 C794.864035,259.499999 799.22807,250.574562 799.22807,241.070175 C799.22807,223.732456 785.127193,209.631579 767.789474,209.631579 C765.311404,209.631579 763.298246,207.618421 763.298246,205.140351 L763.298246,175.964912 C763.298246,148.271929 741.811403,125.105263 715.41228,124.324562 C714.899123,124.307017 714.399123,124.298246 713.885965,124.298246 Z" id="Shape" fill="#FCFBFB" fill-rule="nonzero"></path>
            <path d="M758.807018,371.315789 C726.614035,371.315789 700.421053,345.122807 700.421053,312.929825 L700.421053,294.964912 C700.421053,292.486842 702.434211,290.473684 704.912281,290.473684 C707.390351,290.473684 709.403509,292.486842 709.403509,294.964912 L709.403509,312.929825 C709.403509,340.166666 731.561404,362.333333 758.807018,362.333333 C786.052632,362.333333 808.210526,340.166666 808.210526,312.929825 C808.210526,310.451755 810.223684,308.438596 812.701754,308.438596 C815.179824,308.438596 817.192982,310.451755 817.192982,312.929825 C817.192982,345.122807 791,371.315789 758.807018,371.315789 Z" id="Path" fill="#FCFBFB"></path>
            <path d="M751.486842,303.973685 C749.008772,303.973685 746.995614,301.960527 746.995614,299.482457 L746.995614,277.684211 C746.995614,264.657894 740.662281,252.35965 730.070175,244.789474 L726.846491,242.491228 C719.776316,237.442982 715.557018,229.232456 715.557018,220.552631 L715.557018,187.201755 C715.557018,184.723684 717.570176,182.710527 720.048246,182.710527 C722.526316,182.710527 724.539474,184.723684 724.539474,187.201755 L724.539474,220.552631 C724.539474,226.346492 727.350877,231.820176 732.057017,235.179824 L735.280702,237.47807 C748.245614,246.72807 755.97807,261.767544 755.97807,277.692983 L755.97807,299.491228 C755.97807,301.960527 753.964912,303.973685 751.486842,303.973685 Z" id="Path" fill="#FCFBFB"></path>
        </g>
    </g>
</svg>