<?xml version="1.0"?>
<svg xmlns="http://www.w3.org/2000/svg" height="512px" viewBox="0 0 456 456" width="512px" class=""><g><g fill="#263238"><path d="m4 232c-2.207031 0-4-1.792969-4-4 0-125.71875 102.28125-228 228-228 2.207031 0 4 1.792969 4 4s-1.792969 4-4 4c-121.3125 0-220 98.695312-220 220 0 2.207031-1.792969 4-4 4zm0 0" data-original="#000000" class="active-path" style="fill:#00FFCB" data-old_color="#00FFC4"/><path d="m252 8h-8c-2.207031 0-4-1.792969-4-4s1.792969-4 4-4h8c2.207031 0 4 1.792969 4 4s-1.792969 4-4 4zm0 0" data-original="#000000" class="active-path" style="fill:#00FFCB" data-old_color="#00FFC4"/><path d="m228 456c-2.207031 0-4-1.792969-4-4s1.792969-4 4-4c121.3125 0 220-98.695312 220-220 0-2.207031 1.792969-4 4-4s4 1.792969 4 4c0 125.71875-102.28125 228-228 228zm0 0" data-original="#000000" class="active-path" style="fill:#00FFCB" data-old_color="#00FFC4"/><path d="m212 456h-8c-2.207031 0-4-1.792969-4-4s1.792969-4 4-4h8c2.207031 0 4 1.792969 4 4s-1.792969 4-4 4zm0 0" data-original="#000000" class="active-path" style="fill:#00FFCB" data-old_color="#00FFC4"/><path d="m396 24h-32c-2.207031 0-4-1.792969-4-4s1.792969-4 4-4h32c2.207031 0 4 1.792969 4 4s-1.792969 4-4 4zm0 0" data-original="#000000" class="active-path" style="fill:#00FFCB" data-old_color="#00FFC4"/><path d="m380 40c-2.207031 0-4-1.792969-4-4v-32c0-2.207031 1.792969-4 4-4s4 1.792969 4 4v32c0 2.207031-1.792969 4-4 4zm0 0" data-original="#000000" class="active-path" style="fill:#00FFCB" data-old_color="#00FFC4"/><path d="m452 76h-32c-2.207031 0-4-1.792969-4-4s1.792969-4 4-4h32c2.207031 0 4 1.792969 4 4s-1.792969 4-4 4zm0 0" data-original="#000000" class="active-path" style="fill:#00FFCB" data-old_color="#00FFC4"/><path d="m436 92c-2.207031 0-4-1.792969-4-4v-32c0-2.207031 1.792969-4 4-4s4 1.792969 4 4v32c0 2.207031-1.792969 4-4 4zm0 0" data-original="#000000" class="active-path" style="fill:#00FFCB" data-old_color="#00FFC4"/></g><path d="m178.527344 88.023438c-26.269532.785156-46.527344 23.703124-46.527344 49.992187v25.984375c-17.671875 0-32 14.328125-32 32 0 10.144531 4.808594 19.070312 12.175781 24.9375-12.199219 8.703125-20.175781 22.933594-20.175781 39.0625 0 23.769531 17.3125 43.390625 40 47.214844v12.785156c0 26.511719 21.488281 48 48 48s48-21.488281 48-48v-184c0-27-22.289062-48.792969-49.472656-47.976562zm0 0" fill="#ffd740" data-original="#FFD740" class="" style="fill:#00CACC" data-old_color="#00C9CA"/><path d="m180 372c-28.671875 0-52-23.328125-52-52v-9.503906c-23.367188-5.503906-40-26.214844-40-50.496094 0-15.105469 6.648438-29.457031 18-39.289062-6.40625-6.671876-10-15.445313-10-24.710938 0-18.496094 14.023438-33.785156 32-35.785156v-22.199219c0-28.945313 22.617188-53.167969 50.40625-53.992187 14.273438-.320313 27.632812 4.785156 37.808594 14.664062 10.175781 9.871094 15.785156 23.136719 15.785156 37.3125v184c0 28.671875-23.328125 52-52 52zm.007812-280c-.457031 0-.902343.007812-1.359374.023438-23.511719.695312-42.648438 21.328124-42.648438 45.992187v25.984375c0 2.207031-1.792969 4-4 4-15.441406 0-28 12.558594-28 28 0 8.464844 3.886719 16.414062 10.664062 21.808594.984376.792968 1.535157 1.984375 1.503907 3.230468-.03125 1.257813-.65625 2.425782-1.671875 3.160157-11.585938 8.265625-18.496094 21.640625-18.496094 35.800781 0 21.503906 15.414062 39.695312 36.664062 43.273438 1.929688.328124 3.335938 1.992187 3.335938 3.941406v12.785156c0 24.257812 19.734375 44 44 44s44-19.742188 44-44v-184c0-12-4.742188-23.207031-13.359375-31.574219-8.289063-8.042969-19.121094-12.425781-30.632813-12.425781zm-1.480468-3.976562h.082031zm0 0" fill="#263238" data-original="#263238" class="" style="fill:#FCFBFB" data-old_color="#F4F3F3"/><path d="m140 312c-28.671875 0-52-23.328125-52-52 0-2.207031 1.792969-4 4-4s4 1.792969 4 4c0 24.257812 19.734375 44 44 44s44-19.742188 44-44v-16c0-2.207031 1.792969-4 4-4s4 1.792969 4 4v16c0 28.671875-23.328125 52-52 52zm0 0" fill="#263238" data-original="#263238" class="" style="fill:#FCFBFB" data-old_color="#F4F3F3"/><path d="m146.519531 252.023438c-2.207031 0-4-1.792969-4-4v-19.414063c0-14.175781 6.886719-27.570313 18.425781-35.816406l2.878907-2.050781c4.191406-2.988282 6.695312-7.863282 6.695312-13.023438v-29.703125c0-2.207031 1.792969-4 4-4s4 1.792969 4 4v29.703125c0 7.738281-3.757812 15.042969-10.046875 19.539062l-2.878906 2.046876c-9.433594 6.742187-15.074219 17.695312-15.074219 29.296874v19.414063c0 2.214844-1.785156 4.007813-4 4.007813zm0 0" fill="#263238" data-original="#263238" class="" style="fill:#FCFBFB" data-old_color="#F4F3F3"/><path d="m277.472656 88.023438c26.269532.785156 46.527344 23.703124 46.527344 49.992187v25.984375c17.671875 0 32 14.328125 32 32 0 10.144531-4.808594 19.070312-12.175781 24.9375 12.199219 8.703125 20.175781 22.933594 20.175781 39.0625 0 23.769531-17.3125 43.390625-40 47.214844v12.785156c0 26.511719-21.488281 48-48 48s-48-21.488281-48-48v-184c0-27 22.289062-48.792969 49.472656-47.976562zm0 0" fill="#ffd740" data-original="#FFD740" class="" style="fill:#00CACC" data-old_color="#00C9CA"/><path d="m276 372c-28.671875 0-52-23.328125-52-52v-184c0-14.175781 5.609375-27.441406 15.785156-37.3125 10.175782-9.878906 23.597656-14.976562 37.808594-14.664062 27.789062.832031 50.40625 25.046874 50.40625 53.992187v22.199219c17.976562 2 32 17.28125 32 35.785156 0 9.265625-3.59375 18.039062-10 24.710938 11.351562 9.832031 18 24.183593 18 39.289062 0 24.273438-16.632812 44.992188-40 50.496094v9.503906c0 28.671875-23.328125 52-52 52zm-.007812-280c-11.511719 0-22.34375 4.382812-30.632813 12.425781-8.617187 8.367188-13.359375 19.574219-13.359375 31.574219v184c0 24.257812 19.734375 44 44 44s44-19.742188 44-44v-12.785156c0-1.949219 1.40625-3.613282 3.335938-3.941406 21.25-3.578126 36.664062-21.769532 36.664062-43.273438 0-14.160156-6.910156-27.535156-18.496094-35.808594-1.015625-.734375-1.640625-1.894531-1.671875-3.160156-.03125-1.246094.527344-2.445312 1.503907-3.230469 6.777343-5.386719 10.664062-13.335937 10.664062-21.800781 0-15.441406-12.558594-28-28-28-2.207031 0-4-1.792969-4-4v-25.984375c0-24.664063-19.136719-45.296875-42.648438-45.992187-.457031-.015626-.902343-.023438-1.359374-.023438zm0 0" fill="#263238" data-original="#263238" class="" style="fill:#FCFBFB" data-old_color="#F4F3F3"/><path d="m316 312c-28.671875 0-52-23.328125-52-52v-16c0-2.207031 1.792969-4 4-4s4 1.792969 4 4v16c0 24.257812 19.734375 44 44 44s44-19.742188 44-44c0-2.207031 1.792969-4 4-4s4 1.792969 4 4c0 28.671875-23.328125 52-52 52zm0 0" fill="#263238" data-original="#263238" class="" style="fill:#FCFBFB" data-old_color="#F4F3F3"/><path d="m309.480469 252.023438c-2.207031 0-4-1.792969-4-4v-19.414063c0-11.601563-5.640625-22.554687-15.074219-29.296875l-2.871094-2.046875c-6.296875-4.496094-10.054687-11.808594-10.054687-19.539063v-29.703124c0-2.207032 1.792969-4 4-4s4 1.792968 4 4v29.703124c0 5.160157 2.503906 10.035157 6.695312 13.027344l2.871094 2.046875c11.546875 8.238281 18.433594 21.632813 18.433594 35.816407v19.414062c0 2.199219-1.792969 3.992188-4 3.992188zm0 0" fill="#263238" data-original="#263238" class="" style="fill:#FCFBFB" data-old_color="#F4F3F3"/></g> </svg>
