<?xml version="1.0" encoding="UTF-8"?>
<svg width="436px" height="498px" viewBox="0 0 436 498" version="1.1" xmlns="http://www.w3.org/2000/svg" xmlns:xlink="http://www.w3.org/1999/xlink">
    <!-- Generator: Sketch 52.4 (67378) - http://www.bohemiancoding.com/sketch -->
    <title>Bin</title>
    <desc>Created with Sketch.</desc>
    <g id="Page-1" stroke="none" stroke-width="1" fill="none" fill-rule="evenodd">
        <g id="Bin">
            <path d="M387.4,185.9 C387.4,164 387.4,142.1 387.4,120.2 C387.4,118.1 387.4,116 387.4,113.6 C274.4,113.6 161.9,113.6 48.5,113.6 C48.5,115.9 48.5,117.9 48.5,119.8 C48.5,164.8 48.5,209.9 48.5,254.9" id="Path" stroke="#FAF7F7" stroke-width="16" stroke-linecap="round" stroke-linejoin="round"></path>
            <path d="M48.6,281.6 C48.6,282.6 48.6,280.6 48.6,281.6" id="Path" stroke="#FFFFFF" stroke-width="16" stroke-linecap="round" stroke-linejoin="round"></path>
            <path d="M48.6,307.9 C48.6,354.8 48.6,401.8 48.6,448.7 C48.6,474.4 64.2,489.9 90.2,489.9 C162.4,489.9 234.5,489.9 306.7,489.9" id="Path" stroke="#FFFFFF" stroke-width="16" stroke-linecap="round" stroke-linejoin="round"></path>
            <path d="M343.6,489.9 C344.2,489.9 344.8,489.9 345.5,489.9 C372.1,489.9 387.5,474.6 387.5,448 C387.5,368.3 387.5,288.6 387.5,209" id="Path" stroke="#FFFFFF" stroke-width="16" stroke-linecap="round" stroke-linejoin="round"></path>
            <path d="M312.6,396.5 C307.1,396.5 302.6,392 302.6,386.5 L302.6,251.9 C302.6,246.4 307.1,241.9 312.6,241.9 C318.1,241.9 322.6,246.4 322.6,251.9 L322.6,386.5 C322.6,392 318.1,396.5 312.6,396.5 Z" id="Path" fill="#FFFFFF"></path>
            <path d="M0.7,66.5 C0.7,59.2 6.7,53.2 14,53.2 L422,53.2 C429.3,53.2 435.3,59.2 435.3,66.5 C435.3,73.8 429.3,79.8 422,79.8 L14,79.8 C6.7,79.8 0.7,73.8 0.7,66.5 Z" id="Path" fill="#FFFFFF"></path>
            <path d="M110.7,13.5 C110.7,6.2 116.7,0.2 124,0.2 L302,0.2 C309.3,0.2 315.3,6.2 315.3,13.5 C315.3,20.8 309.3,26.8 302,26.8 L124,26.8 C116.7,26.8 110.7,20.8 110.7,13.5 Z" id="Path" fill="#FFFFFF"></path>
            <path d="M218.1,397.1 C212.6,397.1 208.1,392.6 208.1,387.1 L208.1,251.3 C208.1,245.8 212.6,241.3 218.1,241.3 C223.6,241.3 228.1,245.8 228.1,251.3 L228.1,387.1 C228.1,392.6 223.6,397.1 218.1,397.1 Z" id="Path" fill="#FFFFFF"></path>
            <path d="M123.6,396.2 C118.1,396.2 113.6,391.7 113.6,386.2 L113.6,252.2 C113.6,246.7 118.1,242.2 123.6,242.2 C129.1,242.2 133.6,246.7 133.6,252.2 L133.6,386.2 C133.6,391.7 129.1,396.2 123.6,396.2 Z" id="Path" fill="#FFFFFF"></path>
        </g>
    </g>
</svg>