<?xml version="1.0" encoding="UTF-8"?>
<svg width="316px" height="388px" viewBox="0 0 316 388" version="1.1" xmlns="http://www.w3.org/2000/svg" xmlns:xlink="http://www.w3.org/1999/xlink">
    <!-- Generator: Sketch 52.4 (67378) - http://www.bohemiancoding.com/sketch -->
    <title>Copy</title>
    <desc>Created with Sketch.</desc>
    <g id="Page-1" stroke="none" stroke-width="1" fill="none" fill-rule="evenodd" stroke-linecap="round" stroke-linejoin="round">
        <g id="Copy" transform="translate(6.000000, 6.000000)" stroke-width="12">
            <path d="M59.9,29.5 C61.4,14.7 70.5,4.5 85.1,1.3 C85.6,1.2 86,0.9 86.4,0.7 C149.7,0.7 213.1,0.7 276.4,0.7 C283.3,2.6 289.8,5.2 294.8,10.7 C300.9,17.4 303.1,25.3 303.1,34.1 C303.1,91.6 303.1,149 303.1,206.5 C303.1,234.6 303.2,262.7 303.1,290.8 C303.1,306.6 294.1,318.3 279.2,322.1 C276.7,322.7 273.9,322.9 271.3,322.8" id="Path" stroke="#FFFDFD"></path>
            <path d="M5.1,68.4 C9.1,61.3 15.7,56.3 24.6,54 C27.5,53.2 30.6,53 33.7,53 C93,52.9 152.2,52.9 211.5,53 C227.5,53 239,61.3 243.1,76 C244.1,79.5 244.3,83.3 244.3,86.9 C244.3,104.2 244.3,121.6 244.4,138.9" id="Path" stroke="#FFFFFF"></path>
            <path d="M243.9,158.9 C243.9,159.2 243.9,159.6 243.9,159.9" id="Path" stroke="#FDFDFD"></path>
            <path d="M244.3,180.9 C244.3,193.3 244.3,201.9 244.3,214.3 C244.3,257 244.3,299.8 244.3,342.5 C244.3,358.4 235.9,370.1 221.3,374.1 C218.2,375 214.8,375.3 211.5,375.3 C152.2,375.4 93,375.4 33.7,375.3 C14,375.3 0.9,362.2 0.9,342.6 C0.9,314.4 0.9,286.1 0.9,257.9" id="Path" stroke="#FFFFFF"></path>
            <path d="M0.9,238.9 C0.9,194.2 0.9,149.6 0.9,104.9" id="Path" stroke="#FFFFFF"></path>
        </g>
    </g>
</svg>