<?xml version="1.0" encoding="UTF-8"?>
<svg width="396px" height="398px" viewBox="0 0 396 398" version="1.1" xmlns="http://www.w3.org/2000/svg" xmlns:xlink="http://www.w3.org/1999/xlink">
    <!-- Generator: Sketch 52.4 (67378) - http://www.bohemiancoding.com/sketch -->
    <title>Shape</title>
    <desc>Created with Sketch.</desc>
    <g id="Page-1" stroke="none" stroke-width="1" fill="none" fill-rule="evenodd" stroke-linecap="round" stroke-linejoin="round">
        <g id="Edit_icon_1214958" transform="translate(6.000000, 6.000000)" stroke="#FDFDFD" stroke-width="12">
            <path d="M236.1,49.5 C240.3,45.3 244.4,41.1 248.6,36.9 C265.8,19.7 283.8,4.8 309.7,0.7 C311.7,0.8 313.7,0.8 315.8,0.9 C352.4,8.8 375.1,30.7 383.7,66.6 C383.8,70.6 383.9,74.5 384,78.5 C379.3,102.9 364.7,120.2 348.1,136.7 C316,168.5 284,200.5 252.1,232.4 M231,253.3 C229.2,255.1 232,252.6 230.1,254.4 M209.6,274.9 C188.9,295.6 168.2,316.2 147.4,336.7 C140.7,343.3 131.5,348.6 122.5,351.7 C88.6,363.3 54.2,373.7 20.1,384.6 C18.6,385.1 17.1,385.3 15.6,385.3 L15,385.3 C6.7,385.3 0,378.6 0,370.3 L0,370.1 C0,368.3 0.3,366.5 1,364.8 C15.5,326.4 29.6,287.8 44.6,249.6 C48.1,240.7 53.5,231.8 60.2,225.1 C110.3,174.7 160.9,124.7 211.2,74.4" id="Shape"></path>
        </g>
    </g>
</svg>