<?xml version="1.0" encoding="UTF-8"?>
<svg width="402px" height="384px" viewBox="0 0 402 384" version="1.1" xmlns="http://www.w3.org/2000/svg" xmlns:xlink="http://www.w3.org/1999/xlink">
    <!-- Generator: Sketch 52.4 (67378) - http://www.bohemiancoding.com/sketch -->
    <title>Favourite</title>
    <desc>Created with Sketch.</desc>
    <g id="Page-1" stroke="none" stroke-width="1" fill="none" fill-rule="evenodd" stroke-linecap="round" stroke-linejoin="round">
        <g id="Favourite" transform="translate(6.000000, 6.000000)" stroke="#FFFFFF" stroke-width="12">
            <path d="M163.9,49.1 C170.5,35.6 177.2,22 183.8,8.5 C185.7,4.6 187.9,1.2 192.6,0.3 C198.1,-0.7 202.2,1.6 205.3,7.7 C213.9,24.9 222.5,42.2 231,59.4 C238.8,75.1 246.6,90.8 254.4,106.5 M274.6,118.2 C299.8,121.7 325,125.3 350.2,128.9 C359.6,130.2 369,131.6 378.4,132.9 C383.4,133.6 387.4,135.5 389.2,140.6 C391,145.8 388.6,149.6 385.1,153.1 C359.8,177.9 334.6,202.7 309.2,227.5 M300.7,242.1 C300.1,243.1 300.6,241.2 300.6,242.4 M303.4,259.4 C309.2,292.4 313.8,323.7 319.7,356.7 C320.5,361.5 320.1,365.9 315.9,369 C311.6,372.2 307.2,371.6 302.7,369.2 C268.1,351.1 233.5,333.1 199,314.9 C196.4,313.6 194.6,313.7 192.1,315 C157.8,333.3 123.4,351.4 89,369.7 C85.6,371.5 82.2,372.6 78.5,371.3 C73.3,369.5 70.5,364.7 71.5,358.9 C74.7,339.4 78,319.9 81.3,300.4 C84.6,280.5 88.1,260.7 91.2,240.8 C91.4,239.2 90.3,237 89,235.8 C75.8,223 62.6,210.1 49.4,197.3 M35.2,183.6 C25.9,174.6 16.6,165.6 7.4,156.6 C4.7,154 2.5,150.9 0.1,148 C0.1,146.2 0.1,144.4 0.1,142.7 C2.3,137.1 6.5,134.9 12.3,134 C19.3,133 26.3,132 33.3,130.9 C63.4,126.5 93.5,121.9 123.6,117.6 C128.9,116.8 131.8,114.9 134.2,109.9 C140,97.8 145.9,85.7 151.8,73.6" id="Shape"></path>
        </g>
    </g>
</svg>