<?xml version="1.0" encoding="UTF-8"?>
<svg width="267px" height="275px" viewBox="0 0 267 275" version="1.1" xmlns="http://www.w3.org/2000/svg" xmlns:xlink="http://www.w3.org/1999/xlink">
    <!-- Generator: Sketch 52.4 (67378) - http://www.bohemiancoding.com/sketch -->
    <title>Home-icon-66_2180674</title>
    <desc>Created with Sketch.</desc>
    <g id="Page-1" stroke="none" stroke-width="1" fill="none" fill-rule="evenodd" stroke-linecap="round" stroke-linejoin="round">
        <g id="Home-icon-66_2180674" transform="translate(1.000000, 1.000000)" stroke="#FFFFFF" stroke-width="0.7">
            <path d="M108,200 C111.88601,190.007634 121.601036,183 133,183 C140.512953,183 147.248705,185.984733 152.041451,190.916031 C154.632124,193.51145 156.704663,196.625954 158,200" id="Path"></path>
            <path d="M265,136.153644 L265,260.372897 C265,267.346683 259.351512,273 252.383556,273 L159.257282,273 L159.257282,209.619088 C159.257282,206.142818 158.614078,202.795298 157.32767,199.705279 C156.041262,196.35776 153.98301,193.267741 151.410194,190.692726 C146.650485,185.800197 139.961165,182.838929 132.5,182.838929 C121.179612,182.838929 111.531553,189.791471 107.67233,199.705279 C106.385922,202.795298 105.742718,206.142818 105.742718,209.619088 L105.742718,273 L12.6164442,273 C5.6486165,273 0,267.346683 0,260.372897 L0,136.153644 C0,130.537793 2.22895874,125.15202 6.19662621,121.181089 L123.578891,3.69846229 C128.505961,-1.23282076 136.494167,-1.23282076 141.421238,3.69846229 L258.803502,121.181089 C262.771041,125.15202 265,130.537793 265,136.153644 Z" id="Path"></path>
            <path d="M21.5,156 L21.5,204" id="Path"></path>
            <path d="M21.5,224.72163 L21.5,236.27837" id="Path"></path>
        </g>
    </g>
</svg>