<?xml version="1.0" encoding="UTF-8"?>
<svg width="308px" height="326px" viewBox="0 0 308 326" version="1.1" xmlns="http://www.w3.org/2000/svg" xmlns:xlink="http://www.w3.org/1999/xlink">
    <!-- Generator: Sketch 52.4 (67378) - http://www.bohemiancoding.com/sketch -->
    <title>iconfinder_Search_1214984</title>
    <desc>Created with Sketch.</desc>
    <g id="Page-1" stroke="none" stroke-width="1" fill="none" fill-rule="evenodd">
        <g id="iconfinder_Search_1214984" transform="translate(6.000000, 6.000000)">
            <path d="M8,87.9 C2.9,102 0.1,117.2 0.1,133.1 C0.4,206.2 59.7,265.4 132.4,265.2 C205.2,265 264.7,205.4 264.5,132.9 C264.4,104.6 257.8,80.7 242.5,59.2" id="Path" stroke="#FFFFFF" stroke-width="12" stroke-linecap="round" stroke-linejoin="round"></path>
            <path d="M227.3,40.9 C226.7,40.2 228.1,41.7 227.3,40.9" id="Path" stroke="#FFFEFE" stroke-width="12" stroke-linecap="round" stroke-linejoin="round"></path>
            <path d="M211.6,26.2 C188.9,8 163.4,0.8 132.3,0.9 C85.4,1 44.1,25.7 20.6,62.5" id="Path" stroke="#FFFFFF" stroke-width="12" stroke-linecap="round" stroke-linejoin="round"></path>
            <path d="M299.2,303.8 L226.4,231 C222.9,227.5 217.2,227.5 213.7,231 C210.2,234.5 210.2,240.2 213.7,243.7 L286.5,316.5 C290,320 295.7,320 299.2,316.5 C302.7,313 302.7,307.3 299.2,303.8 Z" id="Path" fill="#FFFFFF"></path>
        </g>
    </g>
</svg>