<?xml version="1.0" encoding="UTF-8"?>
<svg width="396px" height="396px" viewBox="0 0 396 396" version="1.1" xmlns="http://www.w3.org/2000/svg" xmlns:xlink="http://www.w3.org/1999/xlink">
    <!-- Generator: Sketch 52.4 (67378) - http://www.bohemiancoding.com/sketch -->
    <title>Settings</title>
    <desc>Created with Sketch.</desc>
    <g id="Page-1" stroke="none" stroke-width="1" fill="none" fill-rule="evenodd" stroke-linecap="round" stroke-linejoin="round">
        <g id="Settings" transform="translate(6.000000, 6.000000)" stroke="#FFFFFF" stroke-width="12">
            <path d="M43.1,70.1 C43.6,69.5 44.2,68.8 44.8,68.2 C52.1,60.7 59.5,53.4 67,46 C76.8,36.4 88.6,35.5 99.8,43.5 C105.8,47.8 111.8,52 117.6,56.4 C119.5,57.8 121,58.1 123.3,57 C130,53.9 136.7,51.1 143.5,48.4 C145.7,47.6 146.6,46.4 147,44.2 C148.2,36.6 149.1,28.9 151,21.4 C152.2,16.7 154.5,12.1 157.1,8.1 C160.1,3.6 165.4,2 170.3,0.3 C184.3,0.3 198.2,0.3 212.2,0.3 C212.7,0.6 213.3,0.9 213.9,1.1 C223.9,3.9 229.7,10.6 231.6,20.7 C233,28.3 234.3,35.9 235.4,43.5 C235.7,45.7 236.6,46.9 238.8,47.7 C246.1,50.5 253.3,53.7 260.6,56.5 C261.9,57 264,56.9 265.2,56.1 C271.5,51.9 277.6,47.4 283.8,43 C295.3,34.9 306.9,35.8 316.9,45.7 C319,47.8 319.7,48.5 321.8,50.6" id="Path"></path>
            <path d="M336.8,64.9 C337,65.1 336.5,64.6 336.8,64.9" id="Path"></path>
            <path d="M346.2,82.8 C347.2,88.9 345.4,94.2 340.9,100.7 C336.6,106.8 332.1,112.8 328,119 C327.2,120.1 327,122.3 327.5,123.6 C330.2,130.7 333.3,137.6 336,144.7 C336.8,146.8 338,147.6 340,147.9 C347.6,149.1 355.3,150 362.8,151.9 C367.3,153 371.7,155.1 375.5,157.7 C380.1,160.8 381.9,166.1 383.5,171.2 C383.5,185.2 383.5,199.1 383.5,213.1 C383.2,213.6 382.9,214.2 382.7,214.7 C379.8,224.8 373,230.6 362.7,232.5 C355.1,233.9 347.5,235.1 339.9,236.2 C337.6,236.5 336.5,237.6 335.7,239.7 C333,246.5 330.3,253.3 327.3,260 C326.3,262.3 326.5,263.8 327.9,265.7 C332.4,271.7 336.6,277.8 340.9,283.9 C348.7,295 347.9,306.7 338.4,316.4 C331.1,323.9 323.7,331.3 316.2,338.6 C306.5,348.1 294.8,349 283.7,341.1 C277.4,336.7 271.2,332.1 264.8,327.7 C263.7,327 261.8,326.8 260.6,327.2 C253.4,330 246.3,332.9 239.3,336 C237.9,336.6 236.6,338.4 236.3,339.9 C234.8,347.5 233.7,355.1 232.4,362.7 C230.9,371.6 226.1,378 217.8,381.6 C216.2,382.3 214.6,382.8 213,383.4 C199,383.4 185.1,383.4 171.1,383.4 C170.8,383.2 170.5,382.9 170.2,382.8 C159.2,380 153.2,372.7 151.5,361.6 C150.4,354.3 149,347.1 147.9,339.9 C147.6,337.7 146.7,336.5 144.5,335.6 C143,335 141.6,334.5 140.1,333.9" id="Path"></path>
            <path d="M121.2,327.5 C120.7,327.6 120.2,327.8 119.8,328.1 C113.3,332.5 107,337.1 100.6,341.6 C89.5,349.4 77.9,348.5 68.2,338.9 C60.8,331.7 53.5,324.4 46.3,317 C36.7,307.2 35.8,295.5 43.7,284.2 C47.9,278.2 52.2,272.2 56.6,266.3 C58.1,264.4 58.2,262.8 57.2,260.6 C54.2,254.1 51.3,247.4 48.8,240.7 C47.9,238.2 46.5,237.3 44.1,236.9 C36.5,235.7 28.8,234.6 21.3,233 C17.4,232.1 13.5,230.4 10.1,228.4 C4.7,225.1 2.6,219.4 0.6,213.7 C0.6,208.7 0.6,203.8 0.6,198.8" id="Path"></path>
            <path d="M0.5,177.8 C0.5,175.8 0.5,173.8 0.5,171.8 C0.8,171.3 1.1,170.7 1.3,170.2 C4.2,160 11.1,154.3 21.3,152.5 C28.9,151.1 36.5,150.1 44.1,148.6 C45.5,148.3 47.1,147 47.7,145.7 C50.8,138.7 53.7,131.5 56.4,124.3 C56.9,123.1 56.7,121.1 56,120.1 C51.5,113.5 46.8,107.1 42.3,100.6 C40.9,98.6 39.8,96.6 39,94.6" id="Path"></path>
            <path d="M160.7,244.9 C161.4,245.3 161,244.5 161.7,244.9 M183.4,252.3 C186.2,252.7 189,252.9 191.8,252.9 C225.2,253.2 253.1,225.4 253,191.9 C253,158.4 225.8,131.1 192.1,130.9 C158.7,130.6 130.9,158.4 130.9,192 C130.9,206.5 136,219.8 144.5,230.3" id="Shape"></path>
        </g>
    </g>
</svg>