<?xml version="1.0" ?><svg id="Layer_1" style="enable-background:new 0 0 512 512;" version="1.1" viewBox="0 0 512 512" xml:space="preserve" xmlns="http://www.w3.org/2000/svg" xmlns:xlink="http://www.w3.org/1999/xlink"><style type="text/css">
	.st0{fill:none;stroke:#000000;stroke-width:16;stroke-linecap:round;stroke-linejoin:round;stroke-miterlimit:10;}
</style><g><path class="st0" d="M425.4,196.9c0-21.9,0-43.8,0-65.7c0-2.1,0-4.2,0-6.6c-113,0-225.5,0-338.9,0c0,2.3,0,4.3,0,6.2   c0,45,0,90.1,0,135.1"/><path class="st0" d="M86.6,292.6C86.6,293.6,86.6,291.6,86.6,292.6"/><path class="st0" d="M86.6,318.9c0,46.9,0,93.9,0,140.8c0,25.7,15.6,41.2,41.6,41.2c72.2,0,144.3,0,216.5,0"/><path class="st0" d="M381.6,500.9c0.6,0,1.2,0,1.9,0c26.6,0,42-15.3,42-41.9c0-79.7,0-159.4,0-239"/><path d="M350.6,407.5L350.6,407.5c-5.5,0-10-4.5-10-10V262.9c0-5.5,4.5-10,10-10l0,0c5.5,0,10,4.5,10,10v134.6   C360.6,403,356.1,407.5,350.6,407.5z"/><path d="M38.7,77.5L38.7,77.5c0-7.3,6-13.3,13.3-13.3H460c7.3,0,13.3,6,13.3,13.3v0c0,7.3-6,13.3-13.3,13.3H52   C44.7,90.8,38.7,84.8,38.7,77.5z"/><path d="M148.7,24.5L148.7,24.5c0-7.3,6-13.3,13.3-13.3H340c7.3,0,13.3,6,13.3,13.3v0c0,7.3-6,13.3-13.3,13.3H162   C154.7,37.8,148.7,31.8,148.7,24.5z"/><path d="M256.1,408.1L256.1,408.1c-5.5,0-10-4.5-10-10V262.3c0-5.5,4.5-10,10-10l0,0c5.5,0,10,4.5,10,10v135.8   C266.1,403.6,261.6,408.1,256.1,408.1z"/><path d="M161.6,407.2L161.6,407.2c-5.5,0-10-4.5-10-10v-134c0-5.5,4.5-10,10-10h0c5.5,0,10,4.5,10,10v134   C171.6,402.7,167.1,407.2,161.6,407.2z"/></g></svg>