<?xml version="1.0" ?><!DOCTYPE svg  PUBLIC '-//W3C//DTD SVG 1.1//EN'  'http://www.w3.org/Graphics/SVG/1.1/DTD/svg11.dtd'><svg enable-background="new 0 0 512 512" height="512px" id="Card_x5F_deck" version="1.1" viewBox="0 0 512 512" width="512px" xml:space="preserve" xmlns="http://www.w3.org/2000/svg" xmlns:xlink="http://www.w3.org/1999/xlink"><g><path clip-rule="evenodd" d="M117.56,136.716c-9.151-8.578-16.568-17.151-21.917-25.712   c-5.95,9.162-13.414,17.665-21.917,25.712c9.213,7.822,16.526,16.383,21.917,25.701C101.13,152.429,108.264,143.723,117.56,136.716   z" fill-rule="evenodd"/><path clip-rule="evenodd" d="M256.55,216.667V99.974c0-9.828-7.968-17.795-17.796-17.795H66.02   c-9.828,0-17.796,7.967-17.796,17.795v117.472c-2.175,2.248-3.519,5.305-3.519,8.679v43.542v14.599v73.557v25.214v20.17   c0,14.699,11.916,26.616,26.616,26.616h162.958c14.699,0,26.616-11.917,26.616-26.616v-31.009v-14.375v-73.557v-31.16v-26.98   C260.896,222.341,259.207,218.958,256.55,216.667z M58.225,99.974c0-4.298,3.497-7.795,7.795-7.795h172.735   c4.298,0,7.795,3.497,7.795,7.795v113.657h-32.874c-5.724,0-10.616,3.916-12.113,9.439c-5.819,21.473-25.449,37.275-48.763,37.275   s-42.942-15.803-48.763-37.275c-1.497-5.524-6.389-9.439-12.113-9.439H58.225V99.974z M250.896,357.821H54.705v-73.557h196.19   V357.821z" fill-rule="evenodd"/><path clip-rule="evenodd" d="M454.901,127.359H289.832c-6.845,0-12.394,5.549-12.394,12.394v231.231   c0,6.846,5.549,12.395,12.394,12.395h165.069c6.845,0,12.394-5.549,12.394-12.395V139.753   C467.295,132.908,461.746,127.359,454.901,127.359z M457.295,370.984c0,1.32-1.074,2.395-2.394,2.395H289.832   c-1.319,0-2.394-1.074-2.394-2.395V139.753c0-1.32,1.074-2.394,2.394-2.394h165.069c1.319,0,2.394,1.074,2.394,2.394V370.984z" fill-rule="evenodd"/><path clip-rule="evenodd" d="M375.592,204.023c-0.656-0.998-1.292-1.993-1.912-2.987   c-0.05-0.081-0.102-0.162-0.152-0.242c-0.642-1.036-1.265-2.07-1.862-3.104c-9.923,18.012-24.28,31.766-38.788,46.45   c-0.727,0.736-1.411,1.464-2.052,2.19c-4.487,5.083-6.853,10.083-6.853,17.393c0,12.698,10.814,23.049,24.065,23.049   c0.656,0,1.304-0.032,1.947-0.082c0.042-0.004,0.084-0.009,0.126-0.013c8.165-0.671,15.178-5.251,18.991-11.775   c0.238,8.063-3.479,19.771-9.948,34.077h25.687c-6.33-13.276-11.204-25.574-10.739-34.178c4.107,7.135,12.033,11.971,21.102,11.971   c13.265,0,24.092-10.351,24.092-23.049c0-7.813-4.961-14.395-9.961-19.583C394.547,228.786,383.6,216.204,375.592,204.023z" fill-rule="evenodd"/></g></svg>