<?xml version="1.0" ?><svg id="Layer_1" style="enable-background:new 0 0 512 512;" version="1.1" viewBox="0 0 512 512" xml:space="preserve" xmlns="http://www.w3.org/2000/svg" xmlns:xlink="http://www.w3.org/1999/xlink"><style type="text/css">
	.st0{fill:none;stroke:#000000;stroke-width:12;stroke-linecap:round;stroke-linejoin:round;stroke-miterlimit:10;}
</style><g><path class="st0" d="M300.1,112.5c4.2-4.2,8.3-8.4,12.5-12.6c17.2-17.2,35.2-32.1,61.1-36.2c2,0.1,4,0.1,6.1,0.2   c36.6,7.9,59.3,29.8,67.9,65.7c0.1,4,0.2,7.9,0.3,11.9c-4.7,24.4-19.3,41.7-35.9,58.2c-32.1,31.8-64.1,63.8-96,95.7 M295,316.3   c-1.8,1.8,1-0.7-0.9,1.1 M273.6,337.9c-20.7,20.7-41.4,41.3-62.2,61.8c-6.7,6.6-15.9,11.9-24.9,15c-33.9,11.6-68.3,22-102.4,32.9   c-1.5,0.5-3,0.7-4.5,0.7H79c-8.3,0-15-6.7-15-15v-0.2c0-1.8,0.3-3.6,1-5.3c14.5-38.4,28.6-77,43.6-115.2   c3.5-8.9,8.9-17.8,15.6-24.5c50.1-50.4,100.7-100.4,151-150.7"/></g></svg>