<?xml version="1.0"?>
<svg xmlns="http://www.w3.org/2000/svg" xmlns:xlink="http://www.w3.org/1999/xlink" version="1.1" id="Layer_1" x="0px" y="0px" viewBox="0 0 279.851 279.851" style="enable-background:new 0 0 279.851 279.851;" xml:space="preserve" width="512px" height="512px" class=""><g><g>
	<path style="fill:#20CEDD" d="M255.361,41.839c-41.444-41.453-82.538-23.339-115.433,6.23   C107.016,18.5,66.264,0.062,24.487,41.839c-32.571,32.553-32.728,84.866,0,117.244C139.57,262.605,139.543,262.421,139.543,262.421   s0.166,0.341,115.809-103.339C288.098,126.704,287.932,74.392,255.361,41.839z" data-original="#E2574C" class="" data-old_color="#20cedd"/>
	<path style="fill:#20CEB7" d="M139.92,48.06l-0.079-0.061v214.168c1.846-1.558,15.419-13.345,115.511-103.094   c32.737-32.369,32.579-84.682,0-117.235C213.908,0.386,172.823,18.5,139.92,48.06z" data-original="#CB4E44" class="active-path" data-old_color="#20ceb7"/>
</g></g> </svg>
