<?xml version="1.0" ?><svg style="enable-background:new 0 0 48 48;" version="1.1" viewBox="0 0 48 48" xml:space="preserve" xmlns="http://www.w3.org/2000/svg" xmlns:xlink="http://www.w3.org/1999/xlink"><style type="text/css">
	.st0{display:none;}
	.st1{fill:none;stroke:#303030;stroke-width:0.7;stroke-linecap:round;stroke-linejoin:round;stroke-miterlimit:10;}
	.st2{fill:#303030;}
</style><g class="st0" id="Padding__x26__Artboard"/><g id="Icons"><g><path class="st1" d="M22.07,28.90911c0.3-0.77,1.05-1.31,1.93-1.31c0.58,0,1.1,0.23,1.47,0.61c0.2,0.2,0.36,0.44,0.46,0.7"/><path class="st1" d="M34.3,23.9731v9.64804c0,0.54165-0.43909,0.98074-0.98075,0.98074H26.08v-4.92276c0-0.27-0.05-0.53-0.15-0.77    c-0.1-0.26-0.26-0.5-0.46-0.7c-0.37-0.38-0.89-0.61-1.47-0.61c-0.88,0-1.63,0.54-1.93,1.31c-0.1,0.24-0.15,0.5-0.15,0.77v4.92276    h-7.23925c-0.54165,0-0.98075-0.43909-0.98075-0.98074V23.9731c0-0.43618,0.17327-0.85449,0.4817-1.16291l9.12481-9.12481    c0.38301-0.38301,1.00398-0.38301,1.38699,0l9.12481,9.12481C34.12673,23.11861,34.3,23.53692,34.3,23.9731z"/><line class="st1" x1="15.35756" x2="15.35756" y1="25.50596" y2="29.2073"/><line class="st1" x1="15.35756" x2="15.35756" y1="30.86652" y2="31.7555"/></g></g></svg>