<?xml version="1.0" ?><svg id="Layer_1" style="enable-background:new 0 0 512 512;" version="1.1" viewBox="0 0 512 512" xml:space="preserve" xmlns="http://www.w3.org/2000/svg" xmlns:xlink="http://www.w3.org/1999/xlink"><style type="text/css">
	.st0{fill:none;stroke:#000000;stroke-width:12;stroke-linecap:round;stroke-linejoin:round;stroke-miterlimit:10;}
</style><g><path class="st0" d="M113,183.9c-5.1,14.1-7.9,29.3-7.9,45.2c0.3,73.1,59.6,132.3,132.3,132.1c72.8-0.2,132.3-59.8,132.1-132.3   c-0.1-28.3-6.7-52.2-22-73.7"/><path class="st0" d="M332.3,136.9C331.7,136.2,333.1,137.7,332.3,136.9"/><path class="st0" d="M316.6,122.2c-22.7-18.2-48.2-25.4-79.3-25.3c-46.9,0.1-88.2,24.8-111.7,61.6"/><path d="M404.2,399.8L331.4,327c-3.5-3.5-9.2-3.5-12.7,0l0,0c-3.5,3.5-3.5,9.2,0,12.7l72.8,72.8c3.5,3.5,9.2,3.5,12.7,0l0,0   C407.7,409,407.7,403.3,404.2,399.8z"/></g></svg>