<?xml version="1.0" encoding="UTF-8"?>
<svg width="1312px" height="612px" viewBox="0 0 1312 612" version="1.1" xmlns="http://www.w3.org/2000/svg" xmlns:xlink="http://www.w3.org/1999/xlink">
    <!-- Generator: Sketch 52.5 (67469) - http://www.bohemiancoding.com/sketch -->
    <title>Profile_icon</title>
    <desc>Created with Sketch.</desc>
    <g id="Page-1" stroke="none" stroke-width="1" fill="none" fill-rule="evenodd">
        <g id="Profile_icon">
            <ellipse id="Oval" fill="#22A6B1" cx="656" cy="306" rx="656" ry="306"></ellipse>
            <path d="M660.500814,21 C520.494468,21 407,134.683536 407,274.923115 C407,336.032498 428.562972,392.099966 464.469797,435.913933 C470.009447,391.483786 514.311997,353.906601 576.434514,336.110743 C599.130153,357.29233 628.446031,370.144079 660.499186,370.144079 C691.798858,370.144079 720.540266,357.939481 743.004815,337.646302 C805.664372,356.997281 849.014897,396.770217 850.440494,443 C889.960134,398.21775 914,339.398665 914,274.923115 C914,134.683536 800.505532,21 660.500814,21 Z M660.500814,340.073529 C644.318006,340.073529 629.069323,335.620081 615.529404,327.906423 C582.900151,309.308553 560.433975,271.250488 560.433975,227.311002 C560.433975,165.1339 605.322388,114.546846 660.500814,114.546846 C715.684122,114.546846 760.567652,165.1339 760.567652,227.311002 C760.567652,271.925351 737.398442,310.452887 703.95712,328.727996 C690.783364,335.923281 676.083113,340.073529 660.500814,340.073529 Z" id="Shape" stroke="#1FF0C4" stroke-width="4" fill="#20CEB7" fill-rule="nonzero"></path>
        </g>
    </g>
</svg>