<?xml version="1.0"?>
<svg xmlns="http://www.w3.org/2000/svg" height="512px" viewBox="0 0 480 480" width="512px" class=""><g><path d="m456 176h-52c-.847656-2.175781-1.777344-4.390625-2.785156-6.679688l36.800781-36.800781c9.378906-9.375 9.378906-24.578125 0-33.953125l-56.558594-56.558594c-9.375-9.378906-24.578125-9.378906-33.953125 0l-36.800781 36.800782c-2.289063-1.007813-4.503906-1.9375-6.679687-2.785156v-52.023438c0-13.253906-10.746094-24-24-24h-80.023438c-13.253906 0-24 10.746094-24 24v52c-2.175781.847656-4.390625 1.777344-6.679688 2.785156l-36.800781-36.800781c-9.375-9.378906-24.578125-9.378906-33.953125 0l-56.566406 56.558594c-9.359375 9.382812-9.359375 24.570312 0 33.953125l36.800781 36.800781c-1.007812 2.289063-1.9375 4.503906-2.785156 6.679687h-52.015625c-13.253906 0-24 10.746094-24 24v80.023438c0 13.253906 10.746094 24 24 24h52c.847656 2.175781 1.777344 4.390625 2.785156 6.679688l-36.800781 36.800781c-9.378906 9.375-9.378906 24.578125 0 33.953125l56.558594 56.558594c9.382812 9.359374 24.570312 9.359374 33.953125 0l36.800781-36.800782c2.289063 1.007813 4.503906 1.9375 6.679687 2.785156v52.023438c0 13.253906 10.746094 24 24 24h80.023438c13.253906 0 24-10.746094 24-24v-52c2.175781-.847656 4.390625-1.777344 6.679688-2.785156l36.800781 36.800781c9.382812 9.359375 24.570312 9.359375 33.953125 0l56.566406-56.558594c9.359375-9.382812 9.359375-24.570312 0-33.953125l-36.800781-36.800781c1.007812-2.289063 1.9375-4.503906 2.785156-6.679687h52.015625c13.253906 0 24-10.746094 24-24v-80.023438c0-13.253906-10.746094-24-24-24zm8 104c0 4.417969-3.582031 8-8 8h-57.601562c-3.417969 0-6.457032 2.171875-7.566407 5.40625-1.847656 5.300781-4.003906 10.492188-6.449219 15.546875-1.449218 3.066406-.808593 6.714844 1.601563 9.101563l40.71875 40.722656c1.503906 1.5 2.351563 3.539062 2.351563 5.664062s-.847657 4.160156-2.351563 5.664063l-56.558594 56.558593c-3.171875 3.019532-8.15625 3.019532-11.328125 0l-40.71875-40.71875c-2.390625-2.410156-6.039062-3.050781-9.105468-1.601562-5.054688 2.445312-10.242188 4.597656-15.542969 6.449219-3.265625 1.097656-5.460938 4.164062-5.449219 7.605469v57.601562c0 4.417969-3.582031 8-8 8h-80c-4.417969 0-8-3.582031-8-8v-57.601562c0-3.417969-2.171875-6.457032-5.40625-7.566407-5.300781-1.847656-10.492188-4.003906-15.546875-6.449219-3.066406-1.449218-6.714844-.808593-9.101563 1.601563l-40.722656 40.71875c-3.171875 3.019531-8.152344 3.019531-11.328125 0l-56.558593-56.558594c-1.503907-1.5-2.351563-3.539062-2.351563-5.664062s.847656-4.164063 2.351563-5.664063l40.71875-40.71875c2.410156-2.390625 3.050781-6.039062 1.601562-9.105468-2.445312-5.054688-4.597656-10.242188-6.449219-15.542969-1.097656-3.265625-4.164062-5.460938-7.605469-5.449219h-57.601562c-4.417969 0-8-3.582031-8-8v-80c0-4.417969 3.582031-8 8-8h57.601562c3.417969 0 6.457032-2.171875 7.566407-5.40625 1.847656-5.300781 4.003906-10.492188 6.449219-15.546875 1.449218-3.066406.808593-6.714844-1.601563-9.101563l-40.71875-40.722656c-1.503906-1.5-2.351563-3.539062-2.351563-5.664062s.847657-4.160156 2.351563-5.664063l56.558594-56.558593c3.167969-3.027344 8.160156-3.027344 11.328125 0l40.71875 40.71875c2.390625 2.410156 6.039062 3.050781 9.105468 1.601562 5.054688-2.445312 10.242188-4.597656 15.542969-6.449219 3.265625-1.097656 5.460938-4.164062 5.449219-7.605469v-57.601562c0-4.417969 3.582031-8 8-8h80c4.417969 0 8 3.582031 8 8v57.601562c0 3.417969 2.171875 6.457032 5.40625 7.566407 5.300781 1.847656 10.492188 4.003906 15.546875 6.449219 3.066406 1.449218 6.714844.808593 9.101563-1.601563l40.722656-40.71875c3.171875-3.019531 8.152344-3.019531 11.328125 0l56.558593 56.558594c1.503907 1.5 2.351563 3.539062 2.351563 5.664062s-.847656 4.164063-2.351563 5.664063l-40.71875 40.71875c-2.410156 2.390625-3.050781 6.039062-1.601562 9.105468 2.445312 5.054688 4.597656 10.242188 6.449219 15.542969 1.097656 3.265625 4.164062 5.460938 7.605469 5.449219h57.601562c4.417969 0 8 3.582031 8 8zm0 0" data-original="#000000" class="active-path" data-old_color="#000000" fill="#0FCACD"/><path d="m240 136c-57.4375 0-104 46.5625-104 104s46.5625 104 104 104 104-46.5625 104-104c-.066406-57.410156-46.589844-103.933594-104-104zm0 192c-48.601562 0-88-39.398438-88-88s39.398438-88 88-88 88 39.398438 88 88c-.058594 48.578125-39.421875 87.941406-88 88zm0 0" data-original="#000000" class="active-path" data-old_color="#000000" fill="#0FCACD"/></g> </svg>
